<svg width="52" height="52" viewBox="0 0 52 52" fill="none" xmlns="http://www.w3.org/2000/svg">
<mask id="mask0_39_74" style="mask-type:luminance" maskUnits="userSpaceOnUse" x="0" y="0" width="52" height="52">
<path d="M26 49.3333C29.0647 49.3373 32.1001 48.7356 34.9315 47.5627C37.763 46.3898 40.3347 44.669 42.499 42.499C44.6689 40.3347 46.3898 37.763 47.5627 34.9315C48.7355 32.1001 49.3373 29.0648 49.3333 26C49.3372 22.9353 48.7355 19.8999 47.5626 17.0685C46.3897 14.2371 44.6689 11.6653 42.499 9.501C40.3347 7.33103 37.763 5.61017 34.9315 4.4373C32.1001 3.26444 29.0647 2.6627 26 2.66667C22.9352 2.66276 19.8999 3.26453 17.0685 4.43739C14.237 5.61025 11.6653 7.33109 9.50098 9.501C7.33106 11.6653 5.61023 14.2371 4.43737 17.0685C3.26451 19.8999 2.66274 22.9353 2.66665 26C2.66267 29.0648 3.26441 32.1001 4.43728 34.9315C5.61014 37.763 7.33101 40.3347 9.50098 42.499C11.6653 44.6689 14.237 46.3897 17.0685 47.5626C19.8999 48.7355 22.9352 49.3372 26 49.3333Z" fill="white" stroke="white" stroke-width="4" stroke-linejoin="round"/>
<path d="M16.6666 26L23.6666 33L37.6666 19" stroke="black" stroke-width="4" stroke-linecap="round" stroke-linejoin="round"/>
</mask>
<g mask="url(#mask0_39_74)">
<path d="M-2 -2H54V54H-2V-2Z" fill="white"/>
</g>
</svg>
